<?xml version="1.0" encoding="utf-8"?>
<!DOCTYPE svg PUBLIC "-//W3C//DTD SVG 20010904//EN" "http://www.w3.org/TR/2001/REC-SVG-20010904/DTD/svg10.dtd">
<svg height="351.000000pt" preserveAspectRatio="xMidYMid meet" version="1.0" viewBox="0 0 351.000000 351.000000" width="351.000000pt" xmlns="http://www.w3.org/2000/svg">
<g fill="#FFFFFF" stroke="none" transform="translate(0.000000,351.000000) scale(0.100000,-0.100000)">
<path d="M1675 2999 c-86 -9 -179 -32 -251 -64 -125 -55 -271 -181 -342 -292 -15 -24 -29 -43 -32 -43 -3 0 -4 59 -2 131 3 136 -2 159 -39 159 -10 0 -21 -6 -26 -12 -4 -7 -8 -89 -10 -183 -2 -93 -5 -180 -8 -192 -3 -12 -23 -43 -45 -68 -22 -25 -43 -58 -47 -73 -6 -25 -1 -121 33 -585 14 -190 14 -211 -1 -233 -21 -33 -69 -33 -90 0 -15 23 -15 44 -1 243 31 431 37 548 32 578 -4 18 -20 45 -37 61 -59 56 -63 73 -69 274 -5 173 -6 185 -24 188 -39 8 -46 -22 -46 -194 0 -188 9 -224 71 -292 l42 -45 -7 -121 c-3 -66 -16 -245 -27 -398 -18 -248 -18 -280 -5 -312 41 -98 183 -100 229 -3 16 33 16 51 2 249 -18 264 -19 257 9 173 87 -270 298 -472 571 -546 121 -34 298 -31 420 5 203 61 371 191 479 370 l35 59 -6 -150 -6 -150 36 -39 c34 -37 38 -39 96 -39 55 0 64 3 93 32 30 30 33 39 36 105 2 40 -6 209 -17 376 -28 400 -29 368 22 435 54 69 71 126 65 215 -18 222 -172 347 -295 239 -36 -32 -93 -136 -93 -171 0 -12 -23 6 -71 58 -176 188 -421 281 -674 255z m243 -85 c97 -19 240 -88 312 -150 114 -97 206 -245 246 -394 27 -98 25 -272 -4 -374 -39 -136 -94 -229 -197 -331 -75 -76 -106 -99 -185 -138 -127 -63 -199 -80 -335 -80 -323 0 -599 200 -702 508 -25 73 -27 94 -28 235 0 149 1 158 31 243 40 111 84 184 159 265 176 190 436 270 703 216z m740 -109 c34 -29 70 -105 78 -169 11 -79 -3 -130 -54 -198 l-47 -63 2 -120 c2 -103 23 -447 37 -623 3 -30 0 -65 -6 -78 -20 -44 -101 -44 -117 0 -6 13 -4 105 5 227 40 599 40 583 -2 635 -57 71 -69 103 -68 184 0 57 5 88 23 128 25 56 71 102 101 102 10 0 32 -11 48 -25z m-1694 -447 c-4 -12 -10 -45 -14 -73 l-8 -50 -1 61 c0 35 4 65 11 72 17 17 20 15 12 -10z"/>
<path d="M1620 2754 c-203 -53 -364 -210 -424 -413 -20 -69 -21 -227 -1 -301 51 -193 215 -360 406 -414 140 -39 263 -29 394 34 173 84 288 225 329 407 20 88 20 147 1 238 -46 218 -221 399 -436 450 -80 18 -197 18 -269 -1z m264 -70 c168 -43 298 -165 357 -335 32 -91 32 -228 0 -322 -72 -212 -261 -350 -481 -350 -105 0 -192 23 -268 73 -157 101 -243 258 -243 440 0 335 312 577 635 494z"/>
<path d="M1807 2554 c-4 -4 -7 -36 -7 -71 l0 -63 -103 0 c-67 0 -107 -4 -115 -12 -7 -7 -12 -38 -12 -70 l0 -57 -82 -3 -83 -3 -3 -98 c-3 -96 -2 -97 22 -107 33 -12 649 -12 682 0 19 7 25 16 22 33 -3 20 -9 22 -65 25 l-63 3 -2 212 -3 212 -90 3 c-50 1 -94 0 -98 -4z m123 -239 l0 -185 -30 0 -30 0 0 185 0 185 30 0 30 0 0 -185z m-130 -75 l0 -110 -75 0 -75 0 0 110 0 110 75 0 75 0 0 -110z m-230 -70 l0 -40 -50 0 -50 0 0 40 0 40 50 0 50 0 0 -40z"/>
<path d="M1465 1998 c-3 -8 -5 -55 -3 -104 3 -81 5 -89 23 -89 14 0 21 8 23 28 3 21 9 27 26 27 13 0 35 9 50 21 32 26 36 77 6 104 -26 24 -117 33 -125 13z m99 -54 c9 -22 -1 -34 -30 -34 -19 0 -24 5 -24 25 0 20 5 25 24 25 13 0 27 -7 30 -16z"/>
<path d="M1700 1904 c0 -104 0 -105 23 -102 17 2 23 11 25 36 3 26 7 32 28 32 19 0 24 5 24 25 0 20 -5 25 -25 25 -18 0 -25 5 -25 20 0 16 7 20 35 20 31 0 35 3 35 25 0 24 -3 25 -60 25 l-60 0 0 -106z"/>
<path d="M1939 1995 c-56 -31 -64 -129 -14 -172 32 -28 84 -30 116 -4 20 16 21 21 10 34 -10 13 -17 14 -30 5 -28 -17 -70 -2 -77 28 -14 55 38 98 74 62 10 -9 16 -8 29 5 16 15 16 19 2 32 -22 23 -79 28 -110 10z"/>
<path d="M834 2877 c-2 -7 -3 -89 -2 -182 3 -159 4 -170 22 -173 38 -8 46 23 46 181 0 83 -5 157 -10 168 -12 21 -48 26 -56 6z"/>
<path d="M2590 1121 c0 -33 -4 -40 -22 -43 -17 -2 -24 -11 -26 -30 -3 -24 0 -28 22 -28 26 0 26 0 26 -85 0 -107 15 -128 88 -123 43 3 47 5 50 31 3 25 1 27 -31 27 -42 0 -47 10 -47 91 l0 59 41 0 c38 0 40 1 37 28 -3 23 -8 27 -40 30 -37 3 -38 4 -38 43 0 37 -2 39 -30 39 -28 0 -30 -2 -30 -39z"/>
<path d="M454 1067 c-2 -7 -3 -67 -2 -133 l3 -119 33 -3 32 -3 0 81 c0 45 4 89 10 99 14 28 40 34 61 15 16 -14 19 -32 19 -106 l0 -89 33 3 32 3 3 75 c1 41 4 85 7 96 6 27 30 37 56 24 17 -9 19 -22 19 -105 l0 -95 35 0 35 0 0 106 c0 103 -1 106 -29 135 -35 35 -86 39 -123 9 -25 -19 -26 -19 -43 0 -22 24 -77 27 -95 5 -7 -8 -16 -15 -21 -15 -5 0 -9 7 -9 15 0 19 -49 20 -56 2z"/>
<path d="M913 1060 c-38 -23 -40 -31 -15 -53 15 -13 19 -14 36 -1 37 27 96 13 96 -23 0 -9 -16 -13 -54 -13 -70 0 -106 -26 -106 -76 0 -48 14 -70 50 -83 24 -8 41 -7 71 3 22 8 42 10 45 5 3 -5 18 -9 35 -9 l29 0 0 90 c0 98 -15 151 -48 169 -33 18 -104 13 -139 -9z m117 -156 c0 -30 -23 -46 -62 -42 -28 2 -33 7 -33 28 0 20 6 26 30 30 54 10 65 7 65 -16z"/>
<path d="M1194 1061 c-21 -13 -38 -36 -49 -65 -41 -108 42 -210 150 -186 38 9 75 35 75 54 0 6 -9 17 -21 24 -18 11 -24 11 -38 -2 -18 -17 -58 -21 -77 -8 -16 10 -34 48 -34 70 0 11 9 31 21 46 23 29 69 35 89 11 15 -18 21 -19 44 -2 38 28 -20 77 -91 77 -21 0 -52 -9 -69 -19z"/>
<path d="M1410 945 l0 -135 29 0 29 0 3 86 c4 92 17 114 66 114 20 0 23 5 23 35 0 30 -3 35 -23 35 -12 0 -32 -7 -44 -15 -19 -13 -22 -13 -27 0 -3 8 -17 15 -31 15 l-25 0 0 -135z"/>
<path d="M1633 1060 c-85 -51 -85 -185 0 -235 38 -22 109 -23 143 0 86 56 82 197 -6 242 -37 19 -101 16 -137 -7z m117 -60 c45 -45 13 -130 -49 -130 -37 0 -61 31 -61 77 0 40 30 73 65 73 14 0 34 -9 45 -20z"/>
<path d="M1880 945 l0 -135 30 0 c35 0 39 10 42 120 3 75 3 75 32 78 16 2 32 -2 37 -10 5 -7 9 -52 9 -100 l0 -88 35 0 35 0 0 88 c0 75 3 92 19 106 15 14 24 15 40 6 12 -6 21 -18 22 -28 0 -9 1 -51 2 -92 l2 -75 33 -3 32 -3 0 111 c0 107 -1 112 -26 135 -33 31 -91 34 -124 7 -23 -18 -24 -18 -42 0 -22 22 -81 24 -99 2 -11 -14 -13 -14 -21 0 -5 9 -20 16 -33 16 l-25 0 0 -135z"/>
<path d="M2345 1069 c-38 -22 -47 -41 -29 -60 15 -16 19 -17 37 -4 39 27 97 14 97 -22 0 -9 -17 -13 -55 -13 -46 0 -60 -4 -80 -25 -46 -45 -21 -133 38 -136 42 -2 72 3 86 14 11 9 15 9 18 0 3 -7 18 -13 35 -13 l30 0 -4 110 c-3 97 -6 112 -25 131 -25 26 -116 37 -148 18z m95 -195 c-16 -18 -64 -18 -79 0 -20 24 -2 45 42 48 34 2 43 0 45 -15 2 -10 -2 -25 -8 -33z"/>
<path d="M2825 1071 c-11 -5 -31 -21 -45 -36 -21 -23 -25 -36 -25 -92 0 -62 2 -66 37 -99 21 -19 46 -34 55 -35 10 0 27 -2 37 -4 25 -5 77 17 96 40 13 15 12 19 -5 31 -16 12 -22 12 -41 -1 -13 -8 -34 -15 -46 -15 -31 0 -68 27 -68 48 0 15 11 17 89 14 100 -4 104 0 90 67 -12 53 -48 83 -106 87 -26 2 -57 0 -68 -5z m95 -61 c32 -32 24 -40 -40 -40 -33 0 -60 4 -60 10 0 17 39 50 60 50 11 0 29 -9 40 -20z"/>
</g>
</svg>